<svg width="31" height="31" viewBox="0 0 31 31" fill="none" xmlns="http://www.w3.org/2000/svg">
<circle cx="15.5769" cy="15.1389" r="11.7365" fill="#C4C4C4" fill-opacity="0.4"/>
<g clip-path="url(#clip0_33_416)">
<path d="M22.512 22.0743H9.17505V8.7373H22.512V22.0743Z" fill="#FF80E4"/>
<path d="M22.5117 22.0747H15.8433V8.73779H22.5117V22.0747Z" fill="#FF80E4"/>
<path d="M21.7306 21.2936H9.95654V9.51953H21.7306V21.2936Z" fill="#7F1363"/>
<path d="M21.7303 21.2936H15.8433V9.51953H21.7303V21.2936Z" fill="#7F1363"/>
<path d="M12.9902 13.4683L14.0968 15.1187L15.1971 13.4683H16.1286L14.5469 15.7189L16.0786 17.907H15.1471L14.0968 16.319L13.0403 17.907H12.1025L13.6342 15.7189L12.0525 13.4683H12.9902Z" fill="#FF80E4"/>
<path d="M17.6605 17.97C16.6987 17.97 16.1038 17.1684 16.1038 16.2695C16.1038 15.2505 16.7899 14.5753 17.5667 14.5753C18.2247 14.5753 18.5648 15.0192 18.6732 15.2068V13.3438H19.5109V16.9447C19.5109 17.0323 19.6338 17.1907 19.7047 17.1948V17.9075C19.5588 17.9366 19.44 17.9513 19.3483 17.9513C18.7435 17.9513 18.7982 17.3386 18.7982 17.3386C18.6773 17.5471 18.317 17.97 17.6605 17.97ZM17.8793 17.2573C18.4049 17.2573 18.644 16.7864 18.6732 16.7072V15.9257C18.6398 15.8341 18.3398 15.288 17.8293 15.288C17.2588 15.288 16.9728 15.854 16.9728 16.2883C16.9728 16.7657 17.3239 17.2573 17.8793 17.2573Z" fill="#FF80E4"/>
<path d="M15.8438 13.4688V13.8743L16.1287 13.4688H15.8438Z" fill="#FF80E4"/>
<path d="M15.8438 17.9075H16.0787L15.8438 17.5718V17.9075Z" fill="#FF80E4"/>
</g>
<path d="M2.03917 8.82574C0.660129 11.7831 0.287416 15.1107 0.978 18.2998C1.66858 21.489 3.38447 24.3643 5.86338 26.4863C8.3423 28.6082 11.4479 29.8601 14.7054 30.0505C17.9629 30.2409 21.1932 29.3594 23.9024 27.5407C26.6117 25.722 28.6509 23.0662 29.7083 19.9792C30.7658 16.8923 30.7833 13.5439 29.7582 10.446C28.7331 7.34815 26.7218 4.67114 24.0318 2.8242C21.3417 0.977267 18.1208 0.0620063 14.8615 0.218321L14.971 2.5016C17.7315 2.3692 20.4595 3.1444 22.7379 4.7087C25.0163 6.27299 26.7198 8.54033 27.588 11.1641C28.4563 13.7879 28.4414 16.6239 27.5458 19.2385C26.6502 21.853 24.923 24.1024 22.6284 25.6428C20.3337 27.1832 17.5978 27.9298 14.8388 27.7685C12.0798 27.6072 9.44944 26.5469 7.34988 24.7497C5.25032 22.9525 3.79702 20.5172 3.21212 17.8161C2.62722 15.1149 2.9429 12.2966 4.1109 9.79181L2.03917 8.82574Z" fill="#3B5999"/>
<defs>
<clipPath id="clip0_33_416">
<rect width="13.337" height="13.337" fill="white" transform="translate(9.17505 8.7373)"/>
</clipPath>
</defs>
</svg>
