<svg width="31" height="31" viewBox="0 0 31 31" fill="none" xmlns="http://www.w3.org/2000/svg">
<circle cx="15.8972" cy="15.0905" r="11.7365" fill="#C4C4C4" fill-opacity="0.4"/>
<g clip-path="url(#clip0_33_376)">
<path d="M13.2303 24.1595C14.7024 24.1595 15.8972 22.9645 15.8972 21.4921V18.8247H13.2303C11.7582 18.8247 10.5635 20.0197 10.5635 21.4921C10.5635 22.9645 11.7582 24.1595 13.2303 24.1595Z" fill="#0ACF83"/>
<path d="M10.5635 16.1571C10.5635 14.6847 11.7582 13.4897 13.2303 13.4897H15.8972V18.8245H13.2303C11.7582 18.8245 10.5635 17.6295 10.5635 16.1571Z" fill="#A259FF"/>
<path d="M10.5676 10.8232C10.5676 9.35075 11.7624 8.15576 13.2345 8.15576H15.9013V13.4905H13.2345C11.7624 13.4905 10.5676 12.2956 10.5676 10.8232Z" fill="#F24E1E"/>
<path d="M15.8972 8.15527H18.5641C20.0362 8.15527 21.2309 9.35026 21.2309 10.8227C21.2309 12.2951 20.0362 13.4901 18.5641 13.4901H15.8972V8.15527Z" fill="#FF7262"/>
<path d="M21.2309 16.1571C21.2309 17.6295 20.0362 18.8245 18.5641 18.8245C17.092 18.8245 15.8972 17.6295 15.8972 16.1571C15.8972 14.6847 17.092 13.4897 18.5641 13.4897C20.0362 13.4897 21.2309 14.6847 21.2309 16.1571Z" fill="#1ABCFE"/>
</g>
<path d="M0.959961 15.0907C0.959961 18.5466 2.15823 21.8955 4.35059 24.5669C6.54296 27.2383 9.59377 29.0669 12.9832 29.7411C16.3727 30.4153 19.891 29.8934 22.9388 28.2643C25.9866 26.6352 28.3752 23.9998 29.6977 20.807C31.0202 17.6142 31.1947 14.0617 30.1915 10.7546C29.1884 7.44758 27.0696 4.59069 24.1961 2.67073C21.3227 0.750761 17.8724 -0.113484 14.4332 0.225248C10.994 0.563979 7.77868 2.08473 5.33502 4.52838L6.9514 6.14475C9.02109 4.07506 11.7444 2.78704 14.6573 2.50014C17.5702 2.21325 20.4924 2.94523 22.9261 4.57138C25.3598 6.19753 27.1544 8.61723 28.0041 11.4182C28.8537 14.2191 28.7059 17.228 27.5858 19.9322C26.4657 22.6364 24.4426 24.8686 21.8612 26.2483C19.2798 27.6281 16.2999 28.0701 13.4292 27.4991C10.5584 26.9281 7.97448 25.3793 6.11762 23.1167C4.26076 20.8541 3.24586 18.0177 3.24586 15.0907L0.959961 15.0907Z" fill="#3B5999"/>
<defs>
<clipPath id="clip0_33_376">
<rect width="10.6696" height="16.0043" fill="white" transform="translate(10.5625 8.15576)"/>
</clipPath>
</defs>
</svg>
