<svg width="30" height="31" viewBox="0 0 30 31" fill="none" xmlns="http://www.w3.org/2000/svg">
<circle cx="15.0649" cy="15.2375" r="11.7365" fill="#C4C4C4" fill-opacity="0.4"/>
<path d="M8.66309 8.30176L9.60059 22.3087L15.3316 24.3061L21.0625 22.3087L22 8.30176H8.66309Z" fill="#FF7816"/>
<path d="M19.497 12.5532H12.9435L13.1026 14.8976H19.3379L18.9575 20.5741L15.3314 21.8589L11.7053 20.5741L11.5815 18.6799H13.3503L13.3857 19.1957L15.3314 19.8802L17.2771 19.1957L17.4363 16.7731H11.4488L11.042 10.6777H19.6208L19.497 12.5532Z" fill="#ECECF1"/>
<path d="M4.5025 4.67487C2.82954 6.34782 1.5779 8.39424 0.850648 10.6456C0.123392 12.897 -0.0586774 15.2889 0.319432 17.6244C0.697542 19.9599 1.62502 22.1722 3.02548 24.0791C4.42594 25.986 6.25934 27.533 8.37469 28.5926C10.49 29.6523 12.8269 30.1943 15.1927 30.174C17.5585 30.1538 19.8857 29.5719 21.9826 28.4762C24.0795 27.3805 25.8862 25.8023 27.2538 23.8717C28.6214 21.9411 29.5109 19.7133 29.8489 17.3717L27.5865 17.045C27.3002 19.0283 26.5468 20.9152 25.3885 22.5504C24.2301 24.1855 22.7 25.5221 20.924 26.4502C19.148 27.3782 17.1769 27.8711 15.1731 27.8882C13.1693 27.9054 11.1901 27.4463 9.3985 26.5488C7.60686 25.6513 6.05404 24.3411 4.86789 22.726C3.68174 21.1109 2.8962 19.2372 2.57595 17.2591C2.25571 15.281 2.40991 13.2551 3.02588 11.3483C3.64184 9.44143 4.70194 7.70818 6.11888 6.29124L4.5025 4.67487Z" fill="#3B5999"/>
</svg>
