<svg width="31" height="31" viewBox="0 0 31 31" fill="none" xmlns="http://www.w3.org/2000/svg">
<circle cx="15.435" cy="15.0905" r="11.7365" fill="#C4C4C4" fill-opacity="0.4"/>
<g clip-path="url(#clip0_33_402)">
<path d="M22.3699 22.0259H9.03296V8.68896H22.3699V22.0259Z" fill="#FEC478"/>
<path d="M22.3696 22.0254H15.7012V8.68848H22.3696V22.0254Z" fill="#FEC478"/>
<path d="M21.5885 21.2442H9.81445V9.47021H21.5885V21.2442Z" fill="#994C0F"/>
<path d="M21.5882 21.2442H15.7012V9.47021H21.5882V21.2442Z" fill="#994C0F"/>
<path d="M14.4381 13.4194H15.2008L16.8888 17.8581H16.001L15.5884 16.7516H14.038L13.6316 17.8581H12.7439L14.4381 13.4194ZM15.4321 16.1452L14.8195 14.4009L14.1818 16.1452H15.4321Z" fill="#FEC478"/>
<path d="M17.2952 14.1259V13.2944H18.1329V14.1259H17.2952ZM17.2952 17.8582V14.5823H18.1329V17.8582H17.2952Z" fill="#FEC478"/>
<path d="M15.7014 14.7358V17.0546L16.001 17.8581H16.8888L15.7014 14.7358Z" fill="#FEC478"/>
</g>
<path d="M1.89683 8.77789C0.517795 11.7352 0.145082 15.0628 0.835666 18.252C1.52625 21.4412 3.24214 24.3165 5.72105 26.4384C8.19996 28.5604 11.3055 29.8122 14.563 30.0026C17.8206 30.1931 21.0508 29.3116 23.7601 27.4929C26.4693 25.6742 28.5085 23.0184 29.566 19.9314C30.6234 16.8444 30.641 13.4961 29.6159 10.3982C28.5908 7.30029 26.5795 4.62329 23.8894 2.77635C21.1993 0.929416 17.9785 0.0141547 14.7191 0.170469L14.8286 2.45375C17.5892 2.32135 20.3172 3.09655 22.5956 4.66085C24.874 6.22514 26.5775 8.49248 27.4457 11.1163C28.3139 13.7401 28.2991 16.576 27.4035 19.1906C26.5078 21.8052 24.7807 24.0546 22.486 25.5949C20.1914 27.1353 17.4555 27.8819 14.6964 27.7206C11.9374 27.5594 9.30711 26.4991 7.20755 24.7019C5.10799 22.9046 3.65469 20.4693 3.06979 17.7682C2.48489 15.0671 2.80056 12.2487 3.96856 9.74396L1.89683 8.77789Z" fill="#3B5999"/>
<defs>
<clipPath id="clip0_33_402">
<rect width="13.337" height="13.337" fill="white" transform="translate(9.03296 8.68848)"/>
</clipPath>
</defs>
</svg>
