<svg width="31" height="31" viewBox="0 0 31 31" fill="none" xmlns="http://www.w3.org/2000/svg">
<circle cx="15.301" cy="15.1389" r="11.7365" fill="#C4C4C4" fill-opacity="0.4"/>
<g clip-path="url(#clip0_33_431)">
<path d="M22.2364 22.0743H8.89941V8.7373H22.2364V22.0743Z" fill="#FF5F96"/>
<path d="M22.2361 22.0747H15.5676V8.73779H22.2361V22.0747Z" fill="#FF5F96"/>
<path d="M21.4547 21.2936H9.68066V9.51953H21.4547V21.2936Z" fill="#7F1D32"/>
<path d="M21.4546 21.2936H15.5676V9.51953H21.4546V21.2936Z" fill="#7F1D32"/>
<path d="M13.178 17.9075V13.4688H14.0407V17.9075H13.178Z" fill="#FF5F96"/>
<path d="M16.2039 17.97C15.2421 17.97 14.6472 17.1684 14.6472 16.2695C14.6472 15.2505 15.3333 14.5753 16.1101 14.5753C16.7682 14.5753 17.1082 15.0192 17.2166 15.2068V13.3438H18.0544V16.9447C18.0544 17.0323 18.1773 17.1907 18.2482 17.1948V17.9075C18.1022 17.9366 17.9834 17.9513 17.8918 17.9513C17.2869 17.9513 17.3417 17.3386 17.3417 17.3386C17.2208 17.5471 16.8604 17.97 16.2039 17.97ZM16.4227 17.2573C16.9483 17.2573 17.1874 16.7864 17.2166 16.7072V15.9257C17.1832 15.8341 16.8832 15.288 16.3727 15.288C15.8022 15.288 15.5162 15.854 15.5162 16.2883C15.5162 16.7657 15.8673 17.2573 16.4227 17.2573Z" fill="#FF5F96"/>
<path d="M18.0542 16.9442V13.3433H17.2165V15.2063C17.1081 15.0187 16.768 14.5748 16.11 14.5748C15.9209 14.5748 15.7374 14.6151 15.5676 14.6903V15.9553C15.6733 15.6103 15.9418 15.2875 16.3726 15.2875C16.8831 15.2875 17.1831 15.8336 17.2165 15.9252V16.7067C17.1873 16.7859 16.9482 17.2568 16.4226 17.2568C15.9918 17.2568 15.6841 16.9611 15.5676 16.6056V17.8358C15.7556 17.9213 15.9686 17.9695 16.2038 17.9695C16.8603 17.9695 17.2207 17.5465 17.3416 17.3381C17.3416 17.3381 17.2868 17.9507 17.8917 17.9507C17.9834 17.9507 18.1021 17.9361 18.2481 17.907V17.1943C18.1771 17.1902 18.0542 17.0318 18.0542 16.9442Z" fill="#FF5F96"/>
</g>
<path d="M8.28824 28.3275C10.2975 29.3958 12.5243 29.991 14.7987 30.0675C17.0731 30.144 19.3348 29.6999 21.4114 28.769C23.4879 27.8381 25.3243 26.445 26.7804 24.6962C28.2364 22.9473 29.2737 20.8889 29.8129 18.6781C30.3521 16.4672 30.3791 14.1624 29.8917 11.9396C29.4044 9.71672 28.4156 7.6346 27.0009 5.85217C25.5861 4.06973 23.7828 2.6341 21.7286 1.65486C19.6744 0.675627 17.4237 0.178679 15.1481 0.201953L15.1715 2.48773C17.0988 2.46802 19.0051 2.88892 20.745 3.7183C22.4848 4.54768 24.0121 5.76362 25.2104 7.27328C26.4086 8.78295 27.2461 10.5464 27.6589 12.4291C28.0716 14.3118 28.0488 16.2639 27.5921 18.1364C27.1354 20.0089 26.2569 21.7523 25.0236 23.2336C23.7904 24.7148 22.235 25.8946 20.4763 26.6831C18.7175 27.4715 16.8019 27.8477 14.8756 27.7829C12.9492 27.7181 11.0632 27.214 9.3614 26.3092L8.28824 28.3275Z" fill="#3B5999"/>
<defs>
<clipPath id="clip0_33_431">
<rect width="13.337" height="13.337" fill="white" transform="translate(8.89941 8.7373)"/>
</clipPath>
</defs>
</svg>
