<svg width="31" height="31" viewBox="0 0 31 31" fill="none" xmlns="http://www.w3.org/2000/svg">
<circle cx="15.0986" cy="15.177" r="11.7365" fill="#C4C4C4" fill-opacity="0.4"/>
<g clip-path="url(#clip0_33_387)">
<path d="M22.0342 22.1114H8.69727V8.77441H22.0342V22.1114Z" fill="#00C3FF"/>
<path d="M22.034 22.1123H15.3655V8.77539H22.034V22.1123Z" fill="#00C3FF"/>
<path d="M21.2523 21.3307H9.47827V9.55664H21.2523V21.3307Z" fill="#063E8B"/>
<path d="M21.2525 21.3307H15.3655V9.55664H21.2525V21.3307Z" fill="#063E8B"/>
<path d="M15.3653 20.5069C15.0521 20.5069 14.7578 20.3849 14.5364 20.1635L10.6454 16.2725C10.4239 16.0511 10.302 15.7567 10.302 15.4436C10.302 15.1305 10.4239 14.8361 10.6454 14.6147L14.5364 10.7237C14.7578 10.5023 15.0521 10.3804 15.3653 10.3804C15.6784 10.3804 15.9727 10.5023 16.1941 10.7237L20.0852 14.6147C20.3066 14.8361 20.4285 15.1305 20.4285 15.4436C20.4285 15.7567 20.3066 16.0511 20.0852 16.2725L16.1941 20.1635C15.9727 20.3849 15.6784 20.5069 15.3653 20.5069ZM15.3653 11.1618C15.2609 11.1618 15.1628 11.2025 15.089 11.2763L11.1979 15.1673C11.1241 15.2411 11.0835 15.3392 11.0835 15.4436C11.0835 15.548 11.1241 15.6461 11.1979 15.7199L15.089 19.6109C15.1628 19.6847 15.2609 19.7254 15.3653 19.7254C15.4696 19.7254 15.5677 19.6847 15.6416 19.6109L19.5326 15.7199C19.6064 15.6461 19.647 15.548 19.647 15.4436C19.647 15.3392 19.6064 15.2411 19.5326 15.1673L15.6416 11.2763C15.5677 11.2025 15.4696 11.1618 15.3653 11.1618Z" fill="#CCEFFF"/>
<path d="M20.0854 14.6147L16.1943 10.7237C15.973 10.5023 15.6786 10.3804 15.3655 10.3804V11.1618C15.4699 11.1618 15.568 11.2025 15.6418 11.2763L19.5328 15.1673C19.6066 15.2411 19.6473 15.3392 19.6473 15.4436C19.6473 15.548 19.6066 15.6461 19.5328 15.7199L15.6418 19.6109C15.568 19.6847 15.4699 19.7254 15.3655 19.7254V20.5069C15.6786 20.5069 15.973 20.3849 16.1943 20.1635L20.0854 16.2725C20.3068 16.0511 20.4287 15.7567 20.4287 15.4436C20.4287 15.1305 20.3068 14.8361 20.0854 14.6147Z" fill="#CCEFFF"/>
<path d="M16.7463 16.8923C16.2422 16.8923 15.8836 16.6631 15.7585 16.5547L15.9669 16.2046C16.1003 16.2991 16.4072 16.4922 16.7338 16.4922C16.9455 16.4922 17.0922 16.4034 17.0922 16.2504C17.0922 16.0626 16.7824 16.0018 16.6129 15.9545C16.4712 15.9156 15.8336 15.826 15.8336 15.346C15.8336 14.8839 16.2357 14.625 16.6921 14.625C17.1713 14.625 17.427 14.8195 17.5465 14.9251L17.3215 15.2627C17.2103 15.1793 16.9629 15.0209 16.688 15.0209C16.4853 15.0209 16.3545 15.1075 16.3545 15.2668C16.3545 15.4657 16.7032 15.5225 16.7838 15.5419C16.9339 15.5809 17.6299 15.6871 17.6299 16.2004C17.6299 16.8072 17.0186 16.8923 16.7463 16.8923Z" fill="#00C3FF"/>
<path d="M13.3787 16.8503V13.8911H14.6332C15.2074 13.8911 15.5751 14.419 15.5751 14.8747C15.5751 15.4118 15.1668 15.8583 14.654 15.8583H13.9538V16.8503H13.3787ZM13.9538 15.354H14.6207C14.8224 15.354 14.9916 15.1658 14.9916 14.8747C14.9916 14.6246 14.8398 14.3954 14.5957 14.3954H13.9538V15.354Z" fill="#00C3FF"/>
<path d="M15.3655 14.269V15.499C15.4969 15.3283 15.5755 15.1102 15.5755 14.8747C15.5755 14.6691 15.5004 14.4489 15.3655 14.269Z" fill="#00C3FF"/>
</g>
<path d="M3.49024 24.5775C5.98338 27.6563 9.59745 29.6186 13.5374 30.0327C17.4773 30.4468 21.4204 29.2788 24.4992 26.7857C27.5779 24.2925 29.5402 20.6785 29.9543 16.7385C30.3684 12.7986 29.2004 8.85551 26.7073 5.77673L24.9308 7.2153C27.0424 9.82292 28.0317 13.1626 27.681 16.4996C27.3302 19.8366 25.6682 22.8976 23.0606 25.0092C20.453 27.1208 17.1133 28.1101 13.7763 27.7593C10.4393 27.4086 7.37833 25.7466 5.26671 23.139L3.49024 24.5775Z" fill="#3B5999"/>
<defs>
<clipPath id="clip0_33_387">
<rect width="13.337" height="13.337" fill="white" transform="translate(8.69702 8.77539)"/>
</clipPath>
</defs>
</svg>
